<?xml version="1.0" standalone="no"?>
<!DOCTYPE svg PUBLIC "-//W3C//DTD SVG 20010904//EN"
 "http://www.w3.org/TR/2001/REC-SVG-20010904/DTD/svg10.dtd">
<svg version="1.0" xmlns="http://www.w3.org/2000/svg"
 width="700.000000pt" height="700.000000pt" viewBox="0 0 700.000000 700.000000"
 preserveAspectRatio="xMidYMid meet">
<metadata>
Created by potrace 1.11, written by Peter Selinger 2001-2013
</metadata>
<g transform="translate(0.000000,700.000000) scale(0.100000,-0.100000)"
fill="#000000" stroke="none">
<path d="M640 6369 c-44 -18 -90 -59 -113 -102 l-22 -42 0 -2725 0 -2725 25
-45 c14 -24 45 -58 68 -75 l44 -30 2858 0 2858 0 44 30 c23 17 54 51 68 75
l25 45 0 2725 0 2725 -25 45 c-14 24 -45 58 -68 75 l-44 30 -2846 2 c-1857 1
-2856 -2 -2872 -8z m1244 -2526 c226 -909 414 -1649 417 -1645 3 4 187 741
409 1637 222 897 407 1638 412 1648 8 16 33 17 299 17 l289 0 10 -22 c5 -13
190 -750 410 -1638 220 -888 404 -1624 408 -1634 6 -13 75 251 211 800 112
450 297 1195 411 1654 l207 835 266 3 c234 2 267 0 267 -13 0 -11 -915 -3666
-971 -3877 l-10 -38 -333 0 -334 0 -75 308 c-41 169 -227 933 -413 1699 -186
766 -339 1391 -341 1389 -2 -2 -833 -3384 -833 -3392 0 -2 -151 -4 -335 -4
l-334 0 -10 38 c-57 219 -971 3874 -971 3882 0 7 81 10 267 8 l266 -3 411
-1652z"/>
</g>
</svg>
